<svg xmlns="http://www.w3.org/2000/svg" viewBox="0 0 273.36 96.77"><defs><style>.cls-1,.cls-2{fill:#231f20;}.cls-1{stroke:#231f20;stroke-miterlimit:10;}.cls-2{font-size:44.31px;font-family:Alhambra, Alhambra;}</style></defs><title>logo</title><g id="Layer_2" data-name="Layer 2"><g id="Layer_1-2" data-name="Layer 1"><path class="cls-1" d="M74.79,64.09c-.92-5-5.88-10.53-6.43-11.64s-5-4.07-4.36-8.13-.6-2.59,0-12.2S60.28,14,58.81,10.69,48.71,0,39.9.53,26.48,5.65,24.84,8.47a83.56,83.56,0,0,0-5.42,8.63,93.37,93.37,0,0,0-5.23,11.32C12.72,33.05,10,48,8.49,51.34S7.09,63,6.47,66.86c-.7,4.36-4.77,17-4.77,17a18.83,18.83,0,0,1,4.59-4.49A91.46,91.46,0,0,1,19.85,71.5h0c-.18.09-1.3,1-.53,9.23,1,11.11,9.37,12.2,9.73,12.2s11.75,5.91,22.41,2,11.39-6.1,15.24-9.05S73.87,72.59,74.79,70,75.71,69.08,74.79,64.09ZM54.82,8.3c5.78,5.61,6.9,22.87,6.9,22.87S58.63,15.7,52.86,10.34A29.13,29.13,0,0,0,38.59,2.7C42.66,3.26,51.22,4.81,54.82,8.3ZM36.51,19.38s4.12-4.8,6.14-5.36S56.79,36,56.79,36s-.73,12-5.14,16.45-7.9,6.28-10.47,6.26-8.45-4.23-8.82-4.78-5.51-5-5.88-15S36.51,19.38,36.51,19.38ZM21.19,45.59c.3-22,6.8-33.14,6.8-33.14l-6.44,39S20.88,67.55,21.19,45.59ZM46.26,91.92l-9.85.15s-5.87-1.19-13.77-18.56,1.62-3.14,1.62-3.14S31.77,86.82,38.59,90a24,24,0,0,0,7.67,2l7.25-.11A31.65,31.65,0,0,1,46.26,91.92Zm8.33-14.15c-1.65,2-11,3.51-11,3.51L34,76.05S29.23,71,28.17,69a39.42,39.42,0,0,1-1.69-6.27S33.26,75.11,40.62,77a20.22,20.22,0,0,0,12.9-.79l5.3-6.8S56.24,75.73,54.59,77.77Zm5.33-15.89s-1.1,6.31-9,7.95a37.26,37.26,0,0,1-5.13.14s-5.87.72-5.13-.39,10.23-2,11.33-2,6.36-5.54,6.36-5.54l5-8.13Z"/><text class="cls-2" transform="translate(81.69 62.71) scale(0.99 1)">HIMOZA</text></g></g></svg>