<?xml version="1.0" encoding="UTF-8"?>
<svg width="82px" height="68px" viewBox="0 0 82 68" version="1.1" xmlns="http://www.w3.org/2000/svg" xmlns:xlink="http://www.w3.org/1999/xlink">
    <title>logo-amalan-short</title>
    <g id="logo-amalan-short" stroke="none" stroke-width="1" fill="none" fill-rule="evenodd">
        <g id="Group" transform="translate(2.000000, 2.000000)">
            <path d="M26.8495559,60.364992 C20.2363874,60.364992 17.1903447,56.2979387 17.1274879,50.0016081 C17.1903447,44.309634 19.4330769,40.9730033 25.5333336,39.3936943 L33.3470678,37.4228839 C37.2969918,36.3871156 38.7225851,36.1039423 40.0388074,34.1255299 L40.2336636,34.1255299 L40.2336636,43.8693533 C40.2336636,53.7626821 35.8789415,60.364992 26.8495559,60.364992 M44.0974737,56.5019249 L44.0974737,25.4421812 L44.0974737,25.010136 C44.0974737,17.944106 41.2544587,12 29.592,12 C17.2211446,12 14.5799,20.4882316 14.5799,27.185566 L14.5956142,27.185566 C14.5874428,27.3268359 14.5799,27.4750743 14.5799,27.6176112 L18.4361674,27.6176112 C18.4361674,20.8258857 21.0698691,15.6356415 29.9974266,15.6356415 C35.7544849,15.6356415 40.1871495,17.5196628 40.2261208,26.3765898 C40.1946923,30.2947712 39.5095527,32.2104673 35.0687167,33.3089518 L23.6092856,36.2376103 C16.1066928,38.122265 12.8582511,42.362263 12.8582511,49.8045904 C12.8582511,49.8761756 12.8739653,49.9382584 12.8739653,50.0016081 C12.8739653,50.0877638 12.8582511,50.1587155 12.8582511,50.2448711 C12.8582511,57.8766142 16.9169175,64 26.1411593,64 C33.2458683,64 38.5195575,60.0355733 40.0388074,54.9555577 L40.2336636,54.9555577 L40.2336636,57.6333512 L40.2336636,58.0647629 C40.2336636,61.92783 43.1791353,63.4361873 44.8064989,63.4361873 C46.5287765,63.4361873 48.0480264,63.1523805 48.8582511,62.5873008 L48.8582511,62.1552556 L48.8582511,59.7612689 L48.8582511,59.3292237 C48.1485973,59.7055212 47.3390012,59.8005458 46.4194055,59.8005458 C45.1107261,59.8005458 44.0974737,58.8579017 44.0974737,56.5019249" id="Fill-1" fill="#7E8082"></path>
            <path d="M33.5366261,9.9475983e-14 C20.0470421,9.9475983e-14 7.98723329,6.4425033 -4.97379915e-14,16.506665 L4.84010236,16.506665 C12.1027717,8.66844721 22.2780177,3.77028685 33.5366261,3.77028685 C55.5502863,3.77028685 73.4576974,22.4262592 73.4576974,45.3560747 C73.4576974,51.544284 72.1436512,57.4209152 69.8023654,62.7076772 L73.7599861,62.7076772 C75.8949725,57.3582126 77.0793558,51.4966764 77.0793558,45.3560747 C77.0793558,20.3442991 57.5459335,9.9475983e-14 33.5366261,9.9475983e-14" id="Fill-14" fill="#FFE800"></path>
        </g>
    </g>
</svg>