<?xml version="1.0" encoding="UTF-8"?>
<svg width="46px" height="40px" viewBox="0 0 46 40" version="1.1" xmlns="http://www.w3.org/2000/svg" xmlns:xlink="http://www.w3.org/1999/xlink">
    <!-- Generator: Sketch 52.4 (67378) - http://www.bohemiancoding.com/sketch -->
    <title>Fill 1</title>
    <desc>Created with Sketch.</desc>
    <g id="O1---Airtug-Driver-View" stroke="none" stroke-width="1" fill="none" fill-rule="evenodd">
        <g id="O1---ADV---02A---ATCO---No-selection" transform="translate(-149.000000, -632.000000)" fill="#252F35">
            <g id="Group-5" transform="translate(137.000000, 621.000000)">
                <g id="icon/image" transform="translate(12.000000, 11.000000)">
                    <path d="M23,32.5 L15.5,32.5 L5.5,32.5 L13,22.5 L18.91,28.41 L28,17.5 L40.5,32.5 L23,32.5 Z M14.25,7.5 C16.3225,7.5 18,9.18 18,11.25 C18,13.3225 16.3225,15 14.25,15 C12.1775,15 10.5,13.3225 10.5,11.25 C10.5,9.18 12.1775,7.5 14.25,7.5 Z M40.5,0 L5.5,0 C2.74,0 0.5,2.24 0.5,5 L0.5,35 C0.5,37.76 2.74,40 5.5,40 L40.5,40 C43.26,40 45.5,37.76 45.5,35 L45.5,5 C45.5,2.24 43.26,0 40.5,0 Z" id="Fill-1"></path>
                </g>
            </g>
        </g>
    </g>
</svg>