<?xml version="1.0" encoding="UTF-8"?>
<svg width="210px" height="210px" viewBox="0 0 210 210" version="1.1" xmlns="http://www.w3.org/2000/svg" xmlns:xlink="http://www.w3.org/1999/xlink">
    <!-- Generator: Sketch 52.4 (67378) - http://www.bohemiancoding.com/sketch -->
    <title>QR border</title>
    <desc>Created with Sketch.</desc>
    <g id="O1---Airtug-Driver-View" stroke="none" stroke-width="1" fill="none" fill-rule="evenodd">
        <g id="O1---ADV---01---Scan-QR-Code" transform="translate(-407.000000, -400.000000)" fill="#4ADFBE" fill-rule="nonzero">
            <g id="QR-border" transform="translate(407.000000, 400.000000)">
                <path d="M17,3 L20,0 L20,9 C20,15.0751322 15.0751322,20 9,20 L0,20 L3,17 L9,17 C13.418278,17 17,13.418278 17,9 L17,3 Z M17,3 L20,0 L20,9 C20,15.0751322 15.0751322,20 9,20 L0,20 L3,17 L9,17 C13.418278,17 17,13.418278 17,9 L17,3 Z" id="Rectangle-42" transform="translate(10.000000, 10.000000) rotate(-180.000000) translate(-10.000000, -10.000000) "></path>
                <path d="M207,3 L210,0 L210,9 C210,15.0751322 205.075132,20 199,20 L190,20 L193,17 L199,17 C203.418278,17 207,13.418278 207,9 L207,3 Z M210,0 L210,9 C210,15.0751322 205.075132,20 199,20 L190,20 L193,17 L199,17 C203.418278,17 207,13.418278 207,9 L207,3 L210,0 Z" id="Rectangle-42-Copy" transform="translate(200.000000, 10.000000) rotate(-90.000000) translate(-200.000000, -10.000000) "></path>
                <path d="M207,193 L210,190 L210,199 C210,205.075132 205.075132,210 199,210 L190,210 L193,207 L199,207 C203.418278,207 207,203.418278 207,199 L207,193 Z M210,190 L210,199 C210,205.075132 205.075132,210 199,210 L190,210 L193,207 L199,207 C203.418278,207 207,203.418278 207,199 L207,193 L210,190 Z" id="Rectangle-42-Copy-2"></path>
                <path d="M17,193 L20,190 L20,199 C20,205.075132 15.0751322,210 9,210 L0,210 L3,207 L9,207 C13.418278,207 17,203.418278 17,199 L17,193 Z M17,193 L20,190 L20,199 C20,205.075132 15.0751322,210 9,210 L0,210 L3,207 L9,207 C13.418278,207 17,203.418278 17,199 L17,193 Z" id="Rectangle-42-Copy-3" transform="translate(10.000000, 200.000000) rotate(-270.000000) translate(-10.000000, -200.000000) "></path>
            </g>
        </g>
    </g>
</svg>