<?xml version="1.0" encoding="UTF-8"?>
<svg width="80px" height="80px" viewBox="0 0 80 80" version="1.1" xmlns="http://www.w3.org/2000/svg" xmlns:xlink="http://www.w3.org/1999/xlink">
    <!-- Generator: Sketch 52.4 (67378) - http://www.bohemiancoding.com/sketch -->
    <title>Group</title>
    <desc>Created with Sketch.</desc>
    <g id="Page-1" stroke="none" stroke-width="1" fill="none" fill-rule="evenodd">
        <g id="Group">
            <circle id="Oval" fill="#FFFFFF" cx="40" cy="40" r="40"></circle>
            <g id="ic-creative" transform="translate(16.000000, 14.000000)" fill="#DAA733">
                <path d="M24.548,10 C17.068,10.005 11.005,16.126 11,23.677 C11.067,28.607 13.442,33.212 17.404,36.094 L17.404,45.971 C17.4073241,46.084115 17.430335,46.1957855 17.472,46.301 L17.472,46.378 C17.488,46.418 17.507,46.457 17.529,46.494 L20.909,51.574 C21.0866686,51.840393 21.385795,52.0002774 21.706,52 L27.294,52 C27.614,52 27.913,51.84 28.091,51.574 L31.471,46.494 C31.493,46.457 31.511,46.418 31.529,46.378 L31.529,46.3 C31.5704017,46.1947474 31.5930766,46.0830649 31.596,45.97 L31.596,36.094 C35.558,33.212 37.933,28.606 38,23.677 C37.995,16.163 31.99,10.059 24.548,10 Z M26.833,50.09 L22.263,50.09 L20.17,46.95 L28.917,46.95 L26.833,50.09 Z M19.334,45.011 L19.334,42.443 L29.762,42.443 L29.772,45.011 L19.334,45.011 Z M30.204,34.766 L30.204,34.795 C29.9320771,34.9762413 29.7696904,35.28222 29.772,35.609 L29.772,40.533 L19.334,40.533 L19.334,35.551 C19.3363096,35.22422 19.1739229,34.9182413 18.902,34.737 C15.226,32.257 12.993,28.111 12.93,23.647 C13.114,17.167 18.468,12.065 24.887,12.252 C31.047,12.43 35.999,17.429 36.176,23.648 C36.122,28.121 33.888,32.28 30.204,34.766 Z" id="Shape"></path>
                <path d="M24.95,15 C24.4253295,15 24,15.4253295 24,15.95 C24,16.4746705 24.4253295,16.9 24.95,16.9 C28.8965522,16.9055081 32.0944919,20.1034478 32.1,24.05 C32.1,24.5746705 32.5253295,25 33.05,25 C33.5746705,25 34,24.5746705 34,24.05 C33.9944888,19.0541076 29.9458924,15.0055112 24.95,15 Z M8.022,23 L0.978,23 C0.43201065,23.0065903 -0.00555521765,23.4539991 -6.66133815e-16,24 C-6.66133815e-16,24.552 0.438,25 0.978,25 L8.022,25 C8.56798935,24.9934097 9.00555522,24.5460009 9,24 C9.00555522,23.4539991 8.56798935,23.0065903 8.022,23 Z M47.022,23 L39.978,23 C39.4320106,23.0065903 38.9944448,23.4539991 39,24 C39,24.552 39.438,25 39.978,25 L47.022,25 C47.5679894,24.9934097 48.0055552,24.5460009 48,24 C48.0055552,23.4539991 47.5679894,23.0065903 47.022,23 Z M13.767,34.339 C13.5827171,34.1239887 13.3136785,34.000243 13.0305,34.000243 C12.7473215,34.000243 12.4782829,34.1239887 12.294,34.339 L12.294,34.319 L7.339,39.294 C7.06149925,39.5309244 6.94043313,39.9035349 7.02567934,40.2583207 C7.11092554,40.6131064 7.38806071,40.890039 7.74290872,40.9750257 C8.09775673,41.0600125 8.47027855,40.9386739 8.707,40.661 L13.661,35.706 C14.0675003,35.3576537 14.1149411,34.7458472 13.767,34.339 Z M40.653,6.238 C40.2813923,5.92108545 39.7346077,5.92108545 39.363,6.238 L34.293,11.304 C34.0059385,11.5875538 33.9194561,12.0168392 34.0743339,12.3894246 C34.2292117,12.7620101 34.5945216,13.0034926 34.998,13 L34.988,12.99 C35.251569,12.991134 35.5047978,12.8875404 35.692,12.702 L40.762,7.636 C40.9330684,7.43621867 41.0177014,7.17662742 40.9972566,6.91440811 C40.9768117,6.65218879 40.8529661,6.40885232 40.653,6.238 Z M40.811,39.466 C40.7567902,39.3926586 40.6924877,39.3273461 40.62,39.272 L35.695,34.336 C35.3484863,33.933004 34.7413438,33.88606 34.337,34.231 C34.1227372,34.4133976 33.9992853,34.6806151 33.9992853,34.962 C33.9992853,35.2433849 34.1227372,35.5106024 34.337,35.693 L39.261,40.61 C39.5781266,41.0369094 40.1806669,41.127201 40.609,40.812 C40.8145958,40.6605318 40.9514509,40.4334622 40.9893505,40.1809233 C41.0272501,39.9283845 40.9630773,39.6711457 40.811,39.466 Z M13.76,11.35 L8.65,6.24 C8.25323972,5.9002232 7.66180583,5.92306773 7.29243678,6.29243678 C6.92306773,6.66180583 6.9002232,7.25323972 7.24,7.65 L12.35,12.76 C12.7467603,13.0997768 13.3381942,13.0769323 13.7075632,12.7075632 C14.0769323,12.3381942 14.0997768,11.7467603 13.76,11.35 Z M24,0 C23.448,0 23,0.435 23,0.972 L23,7.999 C22.984,8.535 23.418,8.983 23.97,9 L24,9 C24.552,9 25,8.565 25,8.028 L25,0.972 C25,0.435 24.552,0 24,0 Z" id="Shape"></path>
            </g>
        </g>
    </g>
</svg>