<?xml version="1.0" encoding="UTF-8"?>
<svg width="80px" height="80px" viewBox="0 0 80 80" version="1.1" xmlns="http://www.w3.org/2000/svg" xmlns:xlink="http://www.w3.org/1999/xlink">
    <!-- Generator: Sketch 52.4 (67378) - http://www.bohemiancoding.com/sketch -->
    <title>Group 2</title>
    <desc>Created with Sketch.</desc>
    <defs>
        <polygon id="path-1" points="0 0 36 0 36 40 0 40"></polygon>
        <polygon id="path-3" points="0 0 36 0 36 40 0 40"></polygon>
        <polygon id="path-5" points="0 0 36 0 36 40 0 40"></polygon>
    </defs>
    <g id="Page-1" stroke="none" stroke-width="1" fill="none" fill-rule="evenodd">
        <g id="Group-2">
            <circle id="Oval" fill="#FFFFFF" cx="40" cy="40" r="40"></circle>
            <g id="ic-character" transform="translate(22.000000, 20.000000)">
                <g id="Clipped">
                    <mask id="mask-2" fill="white">
                        <use xlink:href="#path-1"></use>
                    </mask>
                    <g id="a"></g>
                    <path d="M30.176,36.267 C24.036,36.267 18.647,31.407 18.647,25.867 C18.647,25.387 18.279,25 17.824,25 C17.368,25 17,25.388 17,25.867 C17,32.33 23.157,38 30.176,38 C30.632,38 31,37.612 31,37.133 C31,36.654 30.632,36.267 30.176,36.267 Z M5.806,5 C5.95396729,5.00042119 6.09922317,4.9603029 6.226,4.884 C13.048,0.753 21.895,0.603 28.802,4.41 C29.187648,4.60005634 29.6545813,4.45395983 29.8631277,4.0779888 C30.0716741,3.70201778 29.9484082,3.22854514 29.583,3.002 C26.0047059,1.03250985 21.9864927,-0.000165091821 17.902,0 C13.4897504,0.0143097762 9.1641909,1.2264342 5.387,3.507 C5.07970472,3.69553817 4.93498912,4.0652151 5.03261939,4.41226749 C5.13024967,4.75931987 5.44647736,4.99932755 5.807,5 L5.806,5 Z M35.898,14.744 C32.728,8.825 25.704,5 18,5 C10.296,5 3.271,8.825 0.102,14.744 C-0.116942785,15.151126 0.0242339562,15.6584799 0.422,15.894 C0.612333406,16.0019626 0.838416157,16.0277899 1.04819486,15.9655354 C1.25797355,15.9032809 1.4333697,15.7583097 1.534,15.564 C4.42,10.174 10.882,6.692 18,6.692 C25.118,6.692 31.581,10.174 34.466,15.564 C34.616,15.843 34.894,16 35.182,16 C35.316,16 35.452,15.966 35.578,15.894 C35.975766,15.6584799 36.1169428,15.151126 35.898,14.744 Z" id="Shape" fill="#DAA733" fill-rule="nonzero" mask="url(#mask-2)"></path>
                </g>
                <g id="Clipped">
                    <mask id="mask-4" fill="white">
                        <use xlink:href="#path-3"></use>
                    </mask>
                    <g id="a"></g>
                    <path d="M8.643,26.667 C8.643,20.872 12.789,16.667 18.5,16.667 C24.487,16.667 28.357,20.264 28.357,25.833 C28.357,26.294 28.725,26.667 29.179,26.667 C29.3985105,26.6654153 29.608385,26.5766234 29.7623824,26.4201875 C29.9163797,26.2637517 30.0018638,26.0525083 30,25.833 C30,19.353 25.378,15 18.5,15 C11.945,15 7,20.015 7,26.667 C7,31.537 8.71,35.567 12.548,39.736 C12.695428,39.8970159 12.9014189,39.9919733 13.1196036,39.9994969 C13.3377882,40.0070205 13.5498308,39.9264781 13.708,39.776 C14.0402957,39.4599218 14.0580896,38.9358909 13.748,38.598 C10.217,34.762 8.643,31.082 8.643,26.667 Z" id="Path" fill="#DAA733" mask="url(#mask-4)"></path>
                </g>
                <g id="Clipped">
                    <mask id="mask-6" fill="white">
                        <use xlink:href="#path-5"></use>
                    </mask>
                    <g id="a"></g>
                    <path d="M18.5,10 C8.94,10 2,16.659 2,25.833 C2,28.307 2.823,30.653 3.713,32.819 C3.79584503,33.0219803 3.95616407,33.1835778 4.15847994,33.2680325 C4.3607958,33.3524872 4.58842672,33.3528354 4.791,33.269 C5.21227731,33.0894161 5.41101256,32.604609 5.237,32.181 C4.412,30.173 3.65,28.016 3.65,25.833 C3.65,17.492 9.757,11.667 18.5,11.667 C26.966,11.667 33.35,18.115 33.35,26.667 C33.35,28.964 31.5,30.833 29.225,30.833 C26.95,30.833 25.1,28.964 25.1,26.667 C25.1,22.742 22.387,20 18.5,20 C14.613,20 11.9,22.742 11.9,26.667 C11.9,32.104 14.945,36.679 20.706,39.896 C20.8975704,40.0034161 21.124289,40.029283 21.3351319,39.9677793 C21.5459748,39.9062756 21.723228,39.7625686 21.827,39.569 C22.047853,39.1671655 21.9042815,38.6624358 21.505,38.437 C16.226,35.49 13.55,31.53 13.55,26.667 C13.55,23.213 16.036,21.667 18.5,21.667 C20.964,21.667 23.45,23.213 23.45,26.667 C23.45,29.883 26.041,32.5 29.225,32.5 C32.409,32.5 35,29.883 35,26.667 C35,17.165 27.907,10 18.5,10 Z" id="Path" fill="#DAA733" mask="url(#mask-6)"></path>
                </g>
            </g>
        </g>
    </g>
</svg>