<svg xmlns="http://www.w3.org/2000/svg" width="16" height="13" viewBox="0 0 16 13">
    <g fill="#B1892C" fill-rule="evenodd">
        <path d="M1.536 3.875c.202.143.812.567 1.83 1.273 1.018.705 1.798 1.248 2.34 1.629l.379.272c.193.14.354.254.482.34.128.086.283.183.464.29.182.107.353.187.514.24.16.054.31.081.446.081h.018c.137 0 .286-.027.447-.08.16-.054.332-.134.513-.241.181-.107.336-.204.464-.29s.289-.2.482-.34l.38-.272 4.178-2.902c.435-.303.798-.67 1.09-1.098.291-.429.437-.878.437-1.348 0-.393-.141-.73-.424-1.01A1.38 1.38 0 0 0 14.57 0H1.428C.97 0 .618.155.371.464.123.774 0 1.161 0 1.625c0 .375.164.781.491 1.219.327.438.676.781 1.045 1.031z"/>
        <path d="M15.107 4.82a185.587 185.587 0 0 0-4.446 3.256c-.34.264-.615.47-.826.617a4.99 4.99 0 0 1-.844.453 2.454 2.454 0 0 1-.982.231h-.018c-.304 0-.63-.077-.982-.23a5.013 5.013 0 0 1-.844-.454 21.256 21.256 0 0 1-.826-.617C4.536 7.453 3.057 6.368.902 4.82A4.82 4.82 0 0 1 0 4v7.49c0 .416.14.771.42 1.067.28.295.616.443 1.009.443h13.143a1.34 1.34 0 0 0 1.008-.443c.28-.296.42-.651.42-1.067V4a5.018 5.018 0 0 1-.893.82z"/>
    </g>
</svg>
