<?xml version="1.0" encoding="UTF-8"?>
<svg width="80px" height="80px" viewBox="0 0 80 80" version="1.1" xmlns="http://www.w3.org/2000/svg" xmlns:xlink="http://www.w3.org/1999/xlink">
    <!-- Generator: Sketch 52.4 (67378) - http://www.bohemiancoding.com/sketch -->
    <title>Group 3</title>
    <desc>Created with Sketch.</desc>
    <defs>
        <polygon id="path-1" points="0 0 55 0 55 35 0 35"></polygon>
    </defs>
    <g id="Page-1" stroke="none" stroke-width="1" fill="none" fill-rule="evenodd">
        <g id="Group-3">
            <circle id="Oval-Copy" fill="#FFFFFF" cx="40" cy="40" r="40"></circle>
            <g id="ic-personal-design" transform="translate(13.000000, 22.000000)">
                <mask id="mask-2" fill="white">
                    <use xlink:href="#path-1"></use>
                </mask>
                <g id="a"></g>
                <path d="M41.212,24.857 C40.6250902,22.5963015 39.4930702,20.5138929 37.915,18.792 C39.577394,17.3506543 41.6998186,16.5502679 43.9,16.535 L44.03,16.535 C48.786,16.567 52.704,20.21 53.194,24.857 L41.212,24.857 Z M39.917,29.197 C39.9159079,31.4338175 38.105808,33.248389 35.869,33.255 L19,33.255 C16.763582,33.2483905 14.9536428,31.4344272 14.952,29.198 L14.952,28.456 C14.952,21.683 20.349,16.142 27.064,15.946 C27.184,15.956 27.314,15.956 27.434,15.956 C27.554,15.956 27.684,15.956 27.804,15.946 C34.518,16.142 39.916,21.683 39.916,28.456 L39.916,29.198 L39.917,29.197 Z M13.657,24.857 L1.763,24.857 C2.253,20.21 6.17,16.567 10.926,16.535 L11.057,16.535 C13.233477,16.5474998 15.3348755,17.3320692 16.987,18.749 C15.3921412,20.4805671 14.2484402,22.5783825 13.657,24.857 Z M6.453,10.242 C6.45189172,7.73349107 8.48249574,5.69796492 10.991,5.693 C13.4995043,5.69796492 15.5301083,7.73349107 15.529,10.242 C15.5242708,12.7138464 13.5501571,14.731435 11.079,14.79 L10.904,14.79 C8.444,14.746 6.454,12.728 6.454,10.242 L6.453,10.242 Z M21.21,7.972 C21.21,4.537 23.996,1.745 27.424,1.745 C30.852,1.745 33.638,4.537 33.638,7.973 C33.638,11.289 31.037,14.004 27.783,14.19 L27.065,14.19 C23.811,14.004 21.21,11.289 21.21,7.973 L21.21,7.972 Z M39.427,10.242 C39.4258917,7.73349107 41.4564957,5.69796492 43.965,5.693 C46.4735043,5.69796492 48.5041083,7.73349107 48.503,10.242 C48.4982708,12.7138464 46.5241571,14.731435 44.053,14.79 L43.878,14.79 C41.4020394,14.7425215 39.4215407,12.7184074 39.428,10.242 L39.427,10.242 Z M47.567,15.4 C49.2434931,14.2215154 50.2420428,12.3012562 50.244,10.252 C50.24692,8.58452464 49.5867695,6.98430106 48.4089983,5.80390384 C47.2312271,4.62350662 45.6324777,3.95979376 43.965,3.959 C42.2975223,3.95979376 40.6987729,4.62350662 39.5210017,5.80390384 C38.3432305,6.98430106 37.68308,8.58452464 37.686,10.252 C37.6832066,12.3024171 38.6828283,14.2247378 40.363,15.4 C38.9933031,15.8728781 37.7319317,16.6147413 36.653,17.582 C35.1667331,16.3110423 33.4318253,15.363893 31.559,14.801 C33.9436558,13.3516021 35.399892,10.7635799 35.401,7.973 C35.4,3.567 31.842,0 27.446,0 C23.049,0 19.491,3.577 19.491,7.973 C19.4871684,10.7646167 20.9442159,13.3547547 23.332,14.801 C21.4826384,15.3640886 19.7678801,16.2992257 18.293,17.549 C17.2216404,16.6042212 15.9759573,15.8779408 14.626,15.411 C16.3024931,14.2325154 17.3010428,12.3122562 17.303,10.263 C17.3059202,8.59535144 16.6456325,6.9949762 15.467645,5.81455016 C14.2896574,4.63412412 12.690651,3.97052837 11.023,3.97 C9.3556956,3.97105908 7.75720327,4.63488903 6.57964839,5.81525744 C5.4020935,6.99562585 4.74208016,8.59569782 4.745,10.263 C4.7422066,12.3134171 5.74182833,14.2357378 7.422,15.411 C2.97695981,16.9544691 -0.00218014459,21.1446122 -2.11441976e-15,25.85 L-2.11441976e-15,26.57 C-2.11441976e-15,26.592 0.022,26.614 0.044,26.614 L13.353,26.614 C13.277,27.214 13.233,27.835 13.233,28.457 L13.233,29.199 C13.2308769,30.7362651 13.8398598,32.2113384 14.9258393,33.2993811 C16.0118188,34.3874238 17.4857337,34.9992054 19.023,35 L35.89,35 C39.09,35 41.68,32.404 41.68,29.198 L41.68,28.456 C41.68,27.834 41.636,27.213 41.56,26.613 L54.956,26.613 C54.978,26.613 55,26.591 55,26.569 L55,25.849 C54.978,21.007 51.888,16.895 47.567,15.4 Z" id="Shape" fill="#DAA733" fill-rule="nonzero" mask="url(#mask-2)"></path>
            </g>
        </g>
    </g>
</svg>