<svg xmlns="http://www.w3.org/2000/svg" xmlns:xlink="http://www.w3.org/1999/xlink" width="18" height="18" viewBox="0 0 18 18">
    <defs>
        <path id="a" d="M0 0h18v18H0z"/>
    </defs>
    <g fill="none" fill-rule="evenodd">
        <mask id="b" fill="#fff">
            <use xlink:href="#a"/>
        </mask>
        <path fill="#B1892C" d="M17.991 14.206a.87.87 0 0 1-.266.762l-2.535 2.517a1.426 1.426 0 0 1-.448.324 1.85 1.85 0 0 1-.542.172c-.013 0-.051.003-.115.01-.063.006-.146.009-.248.009-.241 0-.632-.041-1.172-.124-.54-.083-1.2-.286-1.981-.61-.782-.324-1.668-.81-2.659-1.459-.99-.648-2.045-1.538-3.163-2.67-.889-.876-1.626-1.715-2.21-2.516a17.909 17.909 0 0 1-1.41-2.222 11.974 11.974 0 0 1-.8-1.85 9.794 9.794 0 0 1-.363-1.43c-.063-.4-.089-.714-.076-.943.013-.229.02-.356.02-.382a1.85 1.85 0 0 1 .17-.543c.09-.184.198-.334.325-.448L3.052.267A.839.839 0 0 1 3.662 0c.165 0 .311.048.438.143.127.095.235.213.324.353l2.039 3.87a.929.929 0 0 1 .095.668c-.05.241-.159.445-.324.61l-.933.934a.318.318 0 0 0-.067.124.472.472 0 0 0-.029.143c.051.267.165.572.343.916.153.305.388.677.705 1.115.318.439.769.944 1.353 1.516.572.585 1.08 1.04 1.525 1.363.444.324.816.563 1.114.715.299.153.528.245.686.277l.239.047c.025 0 .066-.01.124-.028a.318.318 0 0 0 .123-.067l1.086-1.106c.23-.203.496-.305.8-.305.217 0 .388.038.515.114h.02l3.677 2.174c.267.166.426.375.476.63z" mask="url(#b)"/>
    </g>
</svg>
