<svg xmlns="http://www.w3.org/2000/svg" xmlns:xlink="http://www.w3.org/1999/xlink" width="56" height="60" viewBox="0 0 56 60">
    <defs>
        <path id="a" d="M.26.162h9.58v11.9H.26z"/>
    </defs>
    <g fill="none" fill-rule="evenodd">
        <path fill="#282827" d="M15.111 22.059v3.364c0 .588.236 1.153.654 1.568L26.492 37.64c.296.293.8.086.8-.328v-3.16l-12.18-12.092zM15.111 13.235v4.283l12.18 12.091v-4.283zM27.556 7.941v4.283l12.18 12.091v-4.282zM27.556.466v3.16l12.18 12.092v-3.364c0-.589-.236-1.153-.654-1.568L28.355.136a.469.469 0 0 0-.8.33M15.111 6.917v2.498L37.732 31.87c.47.466 1.272.136 1.272-.523v-2.498L16.382 6.395c-.47-.466-1.27-.137-1.27.522M10.762 43.235v13.403l-8.98-13.403c-.571 0-1.01.146-1.319.437-.31.291-.463.697-.463 1.218v14.84c1.219 0 1.828-.536 1.828-1.608V46.11l9.096 13.62c.494 0 .895-.141 1.203-.424.309-.285.463-.663.463-1.138V44.844c0-.52-.159-.92-.474-1.195-.317-.276-.768-.414-1.354-.414M41.292 48.716c-.594-.712-1.44-1.069-2.535-1.069-1.42 0-2.592.666-3.518 2-.508-1.334-1.489-2-2.939-2-.694 0-1.32.184-1.875.552a5.906 5.906 0 0 0-1.226 1.127V47.647c-1.096 0-1.643.506-1.643 1.516v10.384c1.126 0 1.69-.451 1.69-1.355v-6.386a2.5 2.5 0 0 1 .38-1.333 2.85 2.85 0 0 1 1.02-.987 2.661 2.661 0 0 1 1.353-.368c.695 0 1.21.218 1.551.655.339.436.509 1.06.509 1.872v7.902c.555 0 .972-.11 1.25-.332.278-.223.416-.563.416-1.023v-6.41c0-.765.27-1.4.81-1.906a2.718 2.718 0 0 1 1.922-.758c.693 0 1.21.218 1.55.655.34.436.509 1.06.509 1.872v7.902c.555 0 .972-.11 1.25-.332.278-.223.416-.563.416-1.023v-6.616c0-1.195-.297-2.148-.89-2.86"/>
        <g transform="translate(45.333 47.647)">
            <mask id="b" fill="#fff">
                <use xlink:href="#a"/>
            </mask>
            <path fill="#282827" d="M8.556.494c-.285.223-.428.563-.428 1.023v6.34c0 .475-.154.92-.463 1.333-.309.414-.721.746-1.239 1a3.723 3.723 0 0 1-1.654.378c-.911 0-1.605-.237-2.084-.712-.478-.475-.717-1.11-.717-1.907V.162C.83.162.26.614.26 1.517v6.478c0 1.21.385 2.191 1.157 2.941.771.751 1.797 1.126 3.079 1.126.817 0 1.58-.2 2.29-.597a5.503 5.503 0 0 0 1.412-1.129v1.726c1.095 0 1.643-.506 1.643-1.516V.162c-.57 0-.999.11-1.284.332" mask="url(#b)"/>
        </g>
        <path fill="#282827" d="M22.17 57.491c-.586.437-1.389.655-2.407.655-.926 0-1.647-.213-2.164-.643-.517-.428-.775-1.025-.775-1.792 0-.765.266-1.37.798-1.814.532-.445 1.27-.667 2.21-.667 1.004 0 1.79.222 2.36.667.572.444.858 1.049.858 1.814 0 .75-.294 1.345-.88 1.78m1.273-8.764c-.818-.72-1.93-1.08-3.333-1.08-.725 0-1.426.116-2.106.345-.679.23-1.226.529-1.644.897-.416.367-.624.75-.624 1.147 0 .2.07.4.208.599.139.198.316.359.532.481.664-1.347 1.852-2.021 3.564-2.021.941 0 1.67.226 2.188.678.516.451.775 1.091.775 1.918v1.352c-.898-.808-1.993-1.214-3.287-1.214-1.388 0-2.503.356-3.343 1.067-.841.713-1.262 1.652-1.262 2.815 0 1.149.409 2.076 1.227 2.78.818.705 1.898 1.057 3.24 1.057.786 0 1.512-.153 2.176-.46.48-.222.912-.523 1.296-.899v1.359c.554 0 .963-.115 1.226-.345.263-.23.394-.582.394-1.057v-6.478c0-1.24-.409-2.22-1.227-2.94"/>
    </g>
</svg>
